<svg width="24" height="25" viewBox="0 0 24 25" fill="none" xmlns="http://www.w3.org/2000/svg">
<path d="M12 2.62784C14.2091 2.62784 16 4.4187 16 6.62784V8.62784H17.75C18.9926 8.62784 20 9.6352 20 10.8778V20.3778C20 21.6205 18.9926 22.6278 17.75 22.6278H6.25C5.00736 22.6278 4 21.6205 4 20.3778V10.8778C4 9.6352 5.00736 8.62784 6.25 8.62784H8V6.62784C8 4.4187 9.79086 2.62784 12 2.62784ZM17.75 10.1278H6.25C5.83579 10.1278 5.5 10.4636 5.5 10.8778V20.3778C5.5 20.7921 5.83579 21.1278 6.25 21.1278H17.75C18.1642 21.1278 18.5 20.7921 18.5 20.3778V10.8778C18.5 10.4636 18.1642 10.1278 17.75 10.1278ZM12.0001 14.1278C12.8286 14.1278 13.5001 14.7994 13.5001 15.6278C13.5001 16.4563 12.8286 17.1278 12.0001 17.1278C11.1717 17.1278 10.5001 16.4563 10.5001 15.6278C10.5001 14.7994 11.1717 14.1278 12.0001 14.1278ZM12 4.12784C10.6193 4.12784 9.5 5.24713 9.5 6.62784V8.62784H14.5V6.62784C14.5 5.24713 13.3807 4.12784 12 4.12784Z" fill="#616161"/>
</svg>
