<svg width="37" height="37" viewBox="0 0 37 37" fill="none" xmlns="http://www.w3.org/2000/svg">
<path fill-rule="evenodd" clip-rule="evenodd" d="M6.84018 0.338608C3.25033 0.338608 0.340179 3.24876 0.340179 6.83861V30.3633C0.340179 33.9531 3.25033 36.8633 6.84018 36.8633H11.5463C12.3747 36.8633 13.0463 36.1917 13.0463 35.3633C13.0463 34.5348 12.3747 33.8633 11.5463 33.8633H6.84018C4.90718 33.8633 3.34018 32.2963 3.34018 30.3633V6.83861C3.34018 4.90561 4.90718 3.33861 6.84018 3.33861H26.4208C28.3538 3.33861 29.9208 4.90561 29.9208 6.83861V15.8072C29.9208 16.6356 30.5923 17.3072 31.4208 17.3072C32.2492 17.3072 32.9208 16.6356 32.9208 15.8072V6.83861C32.9208 3.24876 30.0106 0.338608 26.4208 0.338608H6.84018ZM7.81706 7.24067C6.98864 7.24067 6.31706 7.91224 6.31706 8.74067C6.31706 9.5691 6.98864 10.2407 7.81706 10.2407H18.6633C19.4917 10.2407 20.1633 9.5691 20.1633 8.74067C20.1633 7.91224 19.4917 7.24067 18.6633 7.24067H7.81706ZM6.31706 15.15C6.31706 14.3216 6.98864 13.65 7.81706 13.65H13.7332C14.5616 13.65 15.2332 14.3216 15.2332 15.15C15.2332 15.9784 14.5616 16.65 13.7332 16.65H7.81706C6.98864 16.65 6.31706 15.9784 6.31706 15.15ZM15.0143 35.2066H16.22V35.5197C16.22 36.332 16.8833 36.9914 17.7004 36.9914C18.5176 36.9914 19.1809 36.332 19.1809 35.5197V35.2066H30.6736V35.5197C30.6736 36.332 31.3392 36.9914 32.1542 36.9914C32.9713 36.9914 33.6346 36.332 33.6346 35.5197V35.2066H35.5127C36.3299 35.2066 36.9931 34.5472 36.9931 33.7348V28.8907C36.9931 27.7039 36.5196 26.5641 35.6739 25.7258C35.3161 25.3703 34.9064 25.0806 34.461 24.8639L33.3455 21.6379C32.7202 19.8293 31.01 18.6166 29.0867 18.6166H21.4406C19.5172 18.6166 17.8071 19.8293 17.1817 21.6379L16.0661 24.8639C15.6208 25.0806 15.2085 25.3703 14.8509 25.7258C14.0076 26.5641 13.5339 27.7039 13.5339 28.8907V33.7348C13.5339 34.5472 14.1947 35.2066 15.0143 35.2066ZM34.0323 32.2628H32.282C32.2393 32.2583 32.199 32.2558 32.1542 32.2558C32.1115 32.2558 32.0688 32.2583 32.0285 32.2628H17.8284C17.7857 32.2583 17.7431 32.2558 17.7004 32.2558C17.6578 32.2558 17.6151 32.2583 17.5748 32.2628H16.4947V28.8907C16.4947 28.4833 16.6559 28.0925 16.9449 27.8051C17.2338 27.5179 17.627 27.3579 18.0368 27.3579H32.4904C32.9002 27.3579 33.291 27.5179 33.5801 27.8051C33.8689 28.0925 34.0323 28.4833 34.0323 28.8907V32.2628ZM21.6846 29.7691C21.6846 30.5815 22.3478 31.2409 23.165 31.2409H27.1657C27.9828 31.2409 28.6461 30.5815 28.6461 29.7691C28.6461 28.9567 27.9828 28.2973 27.1657 28.2973H23.165C22.3478 28.2973 21.6846 28.9567 21.6846 29.7691ZM32.14 31.1067C32.8552 31.1067 33.4354 30.5296 33.4354 29.8186V29.7219C33.4354 29.0086 32.8552 28.4317 32.14 28.4317H32.0997C31.3842 28.4317 30.8016 29.0086 30.8016 29.7219V29.8186C30.8016 30.5296 31.3842 31.1067 32.0997 31.1067H32.14ZM18.2334 31.1067C18.9464 31.1067 19.529 30.5296 19.529 29.8186V29.7219C19.529 29.0086 18.9464 28.4317 18.2334 28.4317H18.1931C17.4754 28.4317 16.8951 29.0086 16.8951 29.7219V29.8186C16.8951 30.5296 17.4754 31.1067 18.1931 31.1067H18.2334ZM29.0867 21.5601C29.7452 21.5601 30.3302 21.9746 30.5457 22.5939L31.1473 24.3342H19.3798L19.9814 22.5939C20.1946 21.9746 20.7821 21.5601 21.4406 21.5601H29.0867Z" fill="#0081FB"/>
</svg>
