<svg width="37" height="37" viewBox="0 0 37 37" fill="none" xmlns="http://www.w3.org/2000/svg">
<path d="M13.8334 2.91501C11.3481 2.91501 9.33337 4.92973 9.33337 7.41501V12.3808C10.0585 12.1757 10.8107 12.0351 11.5834 11.9655V7.41501C11.5834 6.17237 12.5907 5.16501 13.8334 5.16501H20.5834V10.79C20.5834 12.654 22.0944 14.165 23.9584 14.165H29.5834V29.915C29.5834 31.1576 28.576 32.165 27.3334 32.165H22.2548C21.5497 33.0187 20.7323 33.7763 19.8253 34.415H27.3334C29.8187 34.415 31.8334 32.4003 31.8334 29.915V12.847C31.8334 11.9519 31.4778 11.0934 30.8449 10.4605L24.2879 3.90352C23.6549 3.27059 22.7965 2.91501 21.9014 2.91501H13.8334ZM29.1174 11.915H23.9584C23.3371 11.915 22.8334 11.4113 22.8334 10.79V5.631L29.1174 11.915ZM22.8334 24.29C22.8334 29.8819 18.3003 34.415 12.7084 34.415C7.11649 34.415 2.58337 29.8819 2.58337 24.29C2.58337 18.6981 7.11649 14.165 12.7084 14.165C18.3003 14.165 22.8334 18.6981 22.8334 24.29ZM18.0039 20.1195C17.5645 19.6802 16.8522 19.6802 16.4129 20.1195L10.4584 26.074L9.00387 24.6195C8.56453 24.1802 7.85222 24.1802 7.41288 24.6195C6.97354 25.0589 6.97354 25.7712 7.41288 26.2105L9.66288 28.4605C10.1022 28.8998 10.8145 28.8998 11.2539 28.4605L18.0039 21.7105C18.4432 21.2712 18.4432 20.5589 18.0039 20.1195Z" fill="#1CD1D1"/>
</svg>
