<svg width="36" height="37" viewBox="0 0 36 37" fill="none" xmlns="http://www.w3.org/2000/svg">
<path fill-rule="evenodd" clip-rule="evenodd" d="M31.8348 28.9313V28.9079C31.8348 28.8888 31.8285 28.791 31.8285 28.7783C31.803 28.5383 31.7333 28.3983 31.7057 28.3452C31.6845 28.2984 29.2623 26.9691 29.1904 28.8442L29.1883 28.9228L29.1862 31.0442C29.182 32.6835 27.8566 34.0107 26.222 34.0107C21.1174 34.0107 10.7175 34.0107 5.61069 34.0107C4.82308 34.0107 4.06931 33.6986 3.5146 33.1401C2.95776 32.5836 2.64654 31.8276 2.64654 31.0378V6.29236C2.64654 4.64875 3.97194 3.31942 5.61069 3.31942H23.2897C24.8627 3.31942 26.3722 3.94585 27.484 5.06282C28.0047 5.58734 28.4197 6.19672 28.7118 6.8614C29.0062 7.5303 29.7896 7.83618 30.4565 7.53888C31.1256 7.24372 31.4283 6.45797 31.132 5.78906C30.7085 4.82921 30.1114 3.94583 29.3577 3.18773C27.7485 1.57173 25.5657 0.665009 23.2897 0.665009C17.7997 0.665009 9.86634 0.665009 5.61069 0.665009C2.51104 0.665009 0 3.18351 0 6.29236V31.0378C0 32.5306 0.590712 33.962 1.64299 35.0172C2.69525 36.0727 4.12226 36.665 5.61069 36.665C10.7175 36.665 21.1174 36.665 26.222 36.665C29.3174 36.665 31.8263 34.1508 31.8327 31.0463C31.8348 29.2753 31.8348 28.9292 31.8348 28.9292V28.9313ZM30.7994 11.4462C30.2596 10.9047 29.3852 10.9047 28.8454 11.4462L16.3133 24.0131C16.0508 24.2786 15.9047 24.6375 15.9089 25.0112L15.9661 29.8741C15.9746 30.6407 16.6013 31.2545 17.3656 31.2438L22.1019 31.1907C22.4618 31.1864 22.8069 31.04 23.0631 30.7829L35.595 18.2159C36.135 17.6744 36.135 16.7952 35.595 16.2537L30.7994 11.4462ZM30.9921 30.1182L30.9772 30.1224C31.0006 30.1352 31.0154 30.1437 31.0154 30.1437L31.0472 30.0929L30.9921 30.1182ZM29.8233 14.3872L32.6627 17.2348L21.5069 28.4237L18.7142 28.4555L18.6805 25.5633L29.8233 14.3872ZM6.06164 27.2578H14.0521C14.7847 27.2578 15.3754 26.6632 15.3754 25.9307C15.3754 25.1981 14.7847 24.6035 14.0521 24.6035H6.06164C5.33119 24.6035 4.73836 25.1981 4.73836 25.9307C4.73836 26.6632 5.33119 27.2578 6.06164 27.2578ZM6.06164 21.3226H14.0521C14.7847 21.3226 15.3754 20.728 15.3754 19.9955C15.3754 19.2629 14.7847 18.6683 14.0521 18.6683H6.06164C5.33119 18.6683 4.73836 19.2629 4.73836 19.9955C4.73836 20.728 5.33119 21.3226 6.06164 21.3226ZM15.3754 8.10367C15.3754 7.37105 14.7847 6.77647 14.0521 6.77647H6.06164C5.33119 6.77647 4.73836 7.37105 4.73836 8.10367V14.0771C4.73836 14.8119 5.33119 15.4043 6.06164 15.4043H14.0521C14.7847 15.4043 15.3754 14.8119 15.3754 14.0771V8.10367ZM12.7288 9.43088V12.7499H7.38491V9.43088H12.7288Z" fill="#0FB586"/>
</svg>
