<svg width="40" height="40" viewBox="0 0 40 40" fill="none" xmlns="http://www.w3.org/2000/svg">
<rect width="40" height="40" rx="20" fill="#115EA3"/>
<path d="M20 10C15.8579 10 12.5 13.3579 12.5 17.5V21.5023L10.8928 25.5241C10.7902 25.7808 10.8216 26.0717 10.9767 26.3006C11.1317 26.5295 11.3902 26.6667 11.6666 26.6667H16.6666C16.6666 28.5139 18.1527 30 20 30C21.8472 30 23.3333 28.5139 23.3333 26.6667H28.3333C28.6098 26.6667 28.8683 26.5295 29.0233 26.3006C29.1783 26.0717 29.2097 25.7808 29.1071 25.5241L27.5 21.5023V17.5C27.5 13.3579 24.1421 10 20 10ZM21.6666 26.6667C21.6666 27.5935 20.9268 28.3333 20 28.3333C19.0732 28.3333 18.3333 27.5935 18.3333 26.6667H21.6666ZM14.1667 17.5C14.1667 14.2783 16.7783 11.6667 20 11.6667C23.2216 11.6667 25.8333 14.2783 25.8333 17.5V21.6627C25.8333 21.7686 25.8535 21.8735 25.8928 21.9719L27.1029 25H12.8971L14.1072 21.9719C14.1465 21.8736 14.1667 21.7686 14.1667 21.6627V17.5Z" fill="white"/>
</svg>
