<svg width="16" height="21" viewBox="0 0 16 21" fill="none" xmlns="http://www.w3.org/2000/svg">
<path d="M13.7542 12.6278C14.9962 12.6278 16.003 13.6346 16.003 14.8766V15.452C16.003 16.3463 15.6835 17.2112 15.1019 17.8906C13.5326 19.724 11.1454 20.6289 8 20.6289C4.85414 20.6289 2.46812 19.7237 0.90182 17.8895C0.322059 17.2106 0.00354004 16.3471 0.00354004 15.4543V14.8766C0.00354004 13.6346 1.0104 12.6278 2.25242 12.6278H13.7542ZM13.7542 14.1278H2.25242C1.83882 14.1278 1.50354 14.463 1.50354 14.8766V15.4543C1.50354 15.99 1.69465 16.5081 2.04251 16.9154C3.29582 18.3831 5.26169 19.1289 8 19.1289C10.7383 19.1289 12.7059 18.3831 13.9624 16.9152C14.3113 16.5075 14.503 15.9886 14.503 15.452V14.8766C14.503 14.463 14.1678 14.1278 13.7542 14.1278ZM8 0.632462C10.7614 0.632462 13 2.87104 13 5.63246C13 8.39389 10.7614 10.6325 8 10.6325C5.23857 10.6325 3 8.39389 3 5.63246C3 2.87104 5.23857 0.632462 8 0.632462ZM8 2.13246C6.067 2.13246 4.5 3.69946 4.5 5.63246C4.5 7.56546 6.067 9.13246 8 9.13246C9.93299 9.13246 11.5 7.56546 11.5 5.63246C11.5 3.69946 9.93299 2.13246 8 2.13246Z" fill="#616161"/>
</svg>
