<svg width="14" height="15" viewBox="0 0 14 15" fill="none" xmlns="http://www.w3.org/2000/svg">
<path d="M1.92173 7.35563C1.61657 6.91704 1.49407 6.5036 1.79266 6.25313C2.04532 6.04094 2.41719 6.00048 2.87657 6.53094C2.87657 6.53094 4.24923 8.12563 4.72173 8.5686C4.82891 8.66813 4.96235 8.68344 5.08376 8.55766C5.18657 8.45048 5.14938 8.35751 5.06188 8.22954C5.06188 8.22954 3.12704 5.35298 2.87329 5.00188C2.45001 4.41454 2.61298 4.03501 2.80876 3.85454C3.0811 3.60188 3.56016 3.55157 4.00532 4.16188L6.34813 7.29766C6.41923 7.37313 6.53407 7.38407 6.61829 7.32501L6.6511 7.30204C6.73751 7.24079 6.76266 7.12376 6.71016 7.03188C6.30001 6.31766 4.66813 3.47173 4.4286 2.95329C4.15298 2.35501 4.2711 2.05094 4.56313 1.87485C4.90985 1.66594 5.23579 1.68126 5.62516 2.25985C6.04735 2.88985 7.68688 5.54219 8.1036 6.25532C8.15829 6.34829 8.27532 6.38329 8.37157 6.33626C8.37266 6.33516 8.37485 6.33516 8.37594 6.33407C8.46782 6.28923 8.55094 6.19844 8.51266 6.06938C8.28516 5.31907 7.16844 2.98282 6.93438 2.44579C6.61391 1.71188 6.77032 1.46251 7.10173 1.29407C7.44954 1.11798 7.81157 1.25688 8.05766 1.74688C8.22391 2.07938 11.1431 7.39173 11.1431 7.39173C11.1005 6.59985 11.3006 6.03876 11.4713 5.47548C11.7819 4.45063 12.5333 3.91798 13.078 4.15751C13.3613 4.28219 13.4127 4.53048 13.382 4.72079C13.3208 5.09048 13.0605 6.23563 13.0102 7.13251C12.892 9.23469 13.5275 11.6574 11.1595 13.1799C9.57469 14.1992 7.8761 14.0199 6.75391 13.2356C5.39329 12.2852 2.1711 7.71438 1.92173 7.35563Z" fill="#FFCA28"/>
<path d="M12.8713 6.16235C12.6733 6.99469 12.647 8.01626 12.6536 8.45157C12.6799 10.148 12.6711 11.6158 10.9703 12.9567C10.7614 13.1219 10.1063 13.5244 9.34392 13.7344C9.09892 13.8011 9.19189 13.8799 9.34283 13.8624C10.1752 13.7661 10.8063 13.4074 11.1574 13.1809C13.5242 11.6584 12.9424 9.25219 13.0605 7.15001C13.1108 6.25313 13.3842 4.84219 13.3799 4.72079C13.3744 4.59938 13.0692 5.33001 12.8713 6.16235ZM8.47986 6.24985C8.47986 6.24985 8.31033 6.25095 8.14955 6.02673C7.6672 5.35626 6.15454 2.82423 5.71923 2.20298C5.22267 1.49423 4.76001 1.76548 4.65501 1.82235C4.65501 1.82235 5.03564 1.83548 5.24564 2.14719C5.67439 2.78266 7.2997 5.63079 7.81267 6.24219C8.14408 6.63704 8.47986 6.24985 8.47986 6.24985ZM2.48392 6.46532C2.63267 6.62501 3.93861 8.17485 4.41986 8.60688C4.83329 8.97766 5.14173 8.50516 5.14173 8.50516C5.14173 8.50516 4.9897 8.52594 4.78189 8.36954C4.26564 7.97907 3.04283 6.58673 2.7672 6.2936C2.35814 5.85829 1.97751 6.13063 1.89658 6.17985C1.89658 6.17985 2.13173 6.08907 2.48392 6.46532ZM6.73642 7.20032C6.73642 7.20032 6.59642 7.30204 6.33939 7.00126C6.15236 6.78141 4.00533 4.16188 4.00533 4.16188C3.4672 3.50454 3.04392 3.70032 2.95642 3.75063C2.95642 3.75063 3.22658 3.73641 3.54267 4.10063C3.68704 4.26688 5.97845 7.18829 6.07033 7.28782C6.40611 7.65423 6.71673 7.33923 6.73642 7.20032Z" fill="#EDA600"/>
<path d="M11.1344 6.82517C11.1344 6.82517 8.28952 2.05533 8.10796 1.73048C7.70437 1.0097 7.23515 1.23064 7.1553 1.26673C7.1553 1.26673 7.41671 1.19236 7.72405 1.71517C7.88812 1.99298 9.97827 5.75111 10.6455 6.95205C10.698 7.17626 10.6936 7.4683 10.5251 7.65642C9.9214 8.33345 9.1514 9.0247 9.3778 10.7386C9.43468 11.1728 9.59546 11.5841 9.71468 11.782C9.86562 12.0303 10.0395 11.9363 9.96296 11.7503C9.91155 11.6245 9.82952 11.3281 9.81312 11.2013C9.73655 10.6106 9.47843 9.57814 10.6356 8.34001C10.8314 8.1333 11.3291 7.50876 11.1344 6.82517Z" fill="#EDA600"/>
<path d="M11.3192 3.88626C11.1672 3.34704 10.9309 2.85267 10.6247 2.42392C10.3491 2.03782 10.0155 1.70532 9.63485 1.43845C9.58672 1.40454 9.52547 1.29954 9.57798 1.19782C9.63048 1.09611 9.74423 1.10923 9.78688 1.12673C10.2627 1.32251 10.652 1.66048 10.9736 2.12423C11.3553 2.67548 11.5445 3.19501 11.6419 3.77579C11.6528 3.83923 11.6506 3.97267 11.515 4.00767C11.3805 4.04267 11.3345 3.93876 11.3192 3.88626ZM10.5755 4.46485C10.4234 3.92564 10.1872 3.43126 9.88094 3.00251C9.60532 2.61642 9.27172 2.28392 8.8911 2.01704C8.84297 1.98314 8.78172 1.87814 8.83422 1.77642C8.88672 1.67361 9.00047 1.68782 9.04313 1.70532C9.51891 1.90111 9.90829 2.23907 10.2298 2.70282C10.6116 3.25407 10.8008 3.77361 10.8981 4.35439C10.9091 4.41782 10.9069 4.55126 10.7713 4.58626C10.6378 4.62126 10.5908 4.51845 10.5755 4.46485ZM0.936256 8.9722C1.12438 9.50048 1.39235 9.97736 1.72594 10.3853C2.02672 10.7517 2.3811 11.0624 2.77813 11.3041C2.82844 11.3347 2.89626 11.4353 2.85032 11.5403C2.80438 11.6464 2.69063 11.6399 2.64579 11.6256C2.15797 11.4616 1.74672 11.1499 1.39563 10.708C0.978912 10.183 0.754694 9.67767 0.619069 9.10454C0.603756 9.0411 0.597194 8.90876 0.730631 8.86501C0.864069 8.82126 0.917662 8.92079 0.936256 8.9722ZM1.63954 8.34548C1.82766 8.87376 2.09563 9.35064 2.42922 9.75861C2.73001 10.125 3.08438 10.4356 3.48141 10.6774C3.53172 10.708 3.59954 10.8086 3.5536 10.9136C3.50766 11.0197 3.39391 11.0131 3.34907 10.9989C2.86126 10.8349 2.45001 10.5231 2.09891 10.0813C1.68219 9.55626 1.45797 9.05095 1.32235 8.47782C1.30704 8.41439 1.30047 8.28204 1.43391 8.23829C1.56735 8.19345 1.62094 8.29407 1.63954 8.34548Z" fill="#B0BEC5"/>
</svg>
