<svg width="22" height="33" viewBox="0 0 22 33" fill="none" xmlns="http://www.w3.org/2000/svg">
<path d="M5.25909 18.23C5.94254 14.9547 8.79437 12.6278 12 12.6278C15.2057 12.6278 18.0574 14.9547 18.7409 18.23C18.7974 18.5003 19.0622 18.6737 19.3325 18.6173C19.6029 18.5609 19.7763 18.296 19.7199 18.0257C18.9425 14.301 15.6934 11.6278 12 11.6278C8.3066 11.6278 5.05742 14.3009 4.28017 18.0257C4.22377 18.296 4.39718 18.5609 4.6675 18.6173C4.93782 18.6737 5.20268 18.5003 5.25909 18.23ZM12 14.6278C10.067 14.6278 8.5 16.1948 8.5 18.1278C8.5 20.0608 10.067 21.6278 12 21.6278C13.933 21.6278 15.5 20.0608 15.5 18.1278C15.5 16.1948 13.933 14.6278 12 14.6278ZM9.5 18.1278C9.5 16.7471 10.6193 15.6278 12 15.6278C13.3807 15.6278 14.5 16.7471 14.5 18.1278C14.5 19.5085 13.3807 20.6278 12 20.6278C10.6193 20.6278 9.5 19.5085 9.5 18.1278Z" fill="#707070"/>
</svg>
